<svg width="12" height="12" viewBox="0 0 12 12" fill="none" xmlns="http://www.w3.org/2000/svg"><g clip-path="url(#clip0)"><path d="M2.142 11.038l-.495-.416a.278.278 0 0 0-.142-.062l1.723-2.053.723.606-1.723 2.053a.277.277 0 0 0-.086-.128z" fill="#fff"/><path d="M5.02 8.22a1.575 1.575 0 0 0-1.098-.92L8.618.74A1.334 1.334 0 0 1 9.87.195l.75.094a.17.17 0 0 1 .14.118l.224.723c.145.468.022.978-.321 1.328L5.02 8.22z" fill="#EBEBEB"/><path d="M10.708.326c.024.021.043.048.053.08l.223.723c.145.468.022.978-.321 1.328L5.02 8.22a1.575 1.575 0 0 0-.439-.592L10.708.326z" fill="#fff"/><path d="M2.49 7.682c.597-.553 1.505-.604 2.12-.088.615.516.722 1.419.281 2.103-.05.08-.158.1-.227.04L2.489 7.914c-.07-.058-.069-.167 0-.231z" fill="#EBEBEB"/><path d="M9.84 11.038l.495-.416a.278.278 0 0 1 .14-.062L8.754 8.507l-.723.606 1.723 2.053a.278.278 0 0 1 .086-.128z" fill="#fff"/><path d="M3.683 8.888l-.455-.381-1.723 2.053c.05.007.1.027.142.062l.495.416c.042.035.07.08.086.128l.347-.414-.154-.13H2.42a.143.143 0 0 1-.022-.203l1.285-1.53zM8.896 9.221a.141.141 0 0 1 .017-.199l.16-.134-.32-.381-.723.606 1.723 2.053a.278.278 0 0 1 .086-.128l.341-.286-1.284-1.53z" fill="#EBEBEB"/><path d="M6.961 8.22A1.575 1.575 0 0 1 8.06 7.3L3.363.74A1.335 1.335 0 0 0 2.111.195l-.75.094a.17.17 0 0 0-.14.118l-.224.723c-.145.468-.021.978.321 1.328L6.961 8.22z" fill="#fff"/><path d="M1.273.326a.17.17 0 0 0-.053.08l-.223.723c-.145.468-.021.978.321 1.328L6.961 8.22c.095-.222.241-.426.439-.592L1.273.326z" fill="#EBEBEB"/><path d="M9.491 7.682c-.597-.553-1.505-.604-2.12-.088-.614.516-.721 1.419-.281 2.103.05.08.158.1.227.04l2.175-1.824c.07-.058.069-.167 0-.231z" fill="#EBEBEB"/><path d="M1.662 10.604l.495.416c.118.1.132.28.03.4l-.256.306a.285.285 0 0 1-.4.04l-.495-.416a.285.285 0 0 1-.03-.4l.256-.306a.285.285 0 0 1 .4-.04zM10.32 10.604l-.496.416a.285.285 0 0 0-.03.4l.257.306a.285.285 0 0 0 .4.04l.495-.415c.118-.1.131-.28.03-.401l-.257-.306a.285.285 0 0 0-.4-.04z" fill="#fff"/><path d="M1.857 11.35a.285.285 0 0 1-.03-.4l.102-.122-.267-.224a.285.285 0 0 0-.4.04l-.256.306a.285.285 0 0 0 .03.4l.495.416c.118.1.298.081.4-.04l.154-.184-.228-.191zM10.615 11.42a.285.285 0 0 1 .03-.4l.229-.192-.155-.184a.285.285 0 0 0-.4-.04l-.495.416a.285.285 0 0 0-.03.4l.257.306c.101.121.281.14.4.04l.266-.224-.102-.121z" fill="#EBEBEB"/><path d="M11.166 1.07l-.224-.723L10.94.34a.345.345 0 0 0-.284-.235l-.75-.094A1.509 1.509 0 0 0 8.488.63l-2.486 3.47L3.518.632a1.51 1.51 0 0 0-1.417-.62l-.75.095a.345.345 0 0 0-.287.24l-.223.723a1.51 1.51 0 0 0 .364 1.503L4.609 6.05 3.857 7.1a1.758 1.758 0 0 0-1.464.436.326.326 0 0 0 .01.49l.591.496-1.556 1.855a.455.455 0 0 0-.308.16l-.25.299a.457.457 0 0 0 .056.643l.496.415a.457.457 0 0 0 .642-.056l.25-.298a.453.453 0 0 0 .106-.331l1.556-1.855.592.497c.15.126.378.09.484-.076a1.757 1.757 0 0 0 .175-1.518l.766-.783.767.783c-.17.493-.12 1.053.175 1.518a.326.326 0 0 0 .484.076l.592-.497 1.556 1.855c-.01.12.027.238.105.33l.25.3c.162.192.45.217.643.055l.496-.415a.457.457 0 0 0 .056-.643l-.25-.299a.455.455 0 0 0-.308-.16l-.474-.564a.176.176 0 1 0-.269.226l.386.46-.453.38-1.469-1.75.04-.034.413-.347.555.661a.176.176 0 1 0 .27-.226l-.555-.661.591-.496a.326.326 0 0 0 .01-.49 1.757 1.757 0 0 0-1.465-.436l-.751-1.05 3.404-3.477c.388-.396.528-.972.364-1.503zM9.964 11.164l.496-.415a.107.107 0 0 1 .147.012l.25.299c.037.044.031.11-.012.147l-.496.416a.106.106 0 0 1-.147-.013l-.25-.298a.106.106 0 0 1 .012-.148zm-5.105-4.86l.329.335-.62.74a1.726 1.726 0 0 0-.348-.184l.639-.892zm-2.803 5.008l-.25.298a.105.105 0 0 1-.148.013l-.496-.416a.106.106 0 0 1-.013-.147l.25-.299a.107.107 0 0 1 .148-.013l.496.416c.042.036.05.103.013.148zm.191-.435l-.453-.38 1.47-1.75.453.38-1.47 1.75zM4.78 9.561L2.652 7.775a1.41 1.41 0 0 1 1.885.03A1.41 1.41 0 0 1 4.78 9.56zm.298-1.645a1.781 1.781 0 0 0-.241-.31l.598-.713.322.329-.679.694zm1.85 0l-5.472-5.59a1.158 1.158 0 0 1-.28-1.153l.161-.518 5.833 6.95a1.79 1.79 0 0 0-.241.31zm1.5-.488c.333 0 .664.116.927.347-.44.369-1.42 1.19-2.128 1.786-.563-.926.099-2.133 1.202-2.133zm-.641-.232a1.73 1.73 0 0 0-.348.184L1.607.429 2.145.36c.423-.054.84.128 1.087.475l4.555 6.36zM7.19 5.759l-.37-.517 1.321-1.574a.176.176 0 0 0-.269-.226L6.609 4.947l-.39-.543L8.775.836A1.158 1.158 0 0 1 9.862.36l.538.068-2 2.382a.176.176 0 1 0 .27.226l2-2.383.16.52c.126.406.019.848-.28 1.152L7.19 5.76z" fill="#fff"/></g><defs><clipPath id="clip0"><path fill="#fff" d="M0 0h12v12H0z"/></clipPath></defs></svg>