<svg width="62" height="61" viewBox="0 0 62 61" fill="none" xmlns="http://www.w3.org/2000/svg">
<g clip-path="url(#clip0)">
<path d="M48.9761 28.0932V23.1859L45.0183 23.8202L41.5371 17.0933L42.7241 14.087L37.6591 11.6333L31.9607 14.2446L28.6372 13.3748L24.6015 11.0788L20.4081 13.4528L22.0699 16.6983L16.9271 24.2152L12.8914 22.9485L13.9188 27.5387L12.2571 32.2068L20.3285 57.4501L43.1191 56.8956L50.0832 32.2068L48.9761 28.0932Z" fill="#656D78"/>
<path d="M26.4227 10.0513L24.8389 3.87904L10.5175 8.15217L11.3075 10.0514L6.48186 13.3749L2.99869 17.3309V19.23C2.99869 19.23 4.26547 19.625 4.26547 19.8624C4.26547 20.0998 2.36636 29.3583 2.36636 29.3583V31.337L9.72549 26.5094C9.72549 26.5094 11.6247 22.4737 11.8621 22.5535C12.0995 22.6333 17.2424 23.4233 17.2424 23.4233L21.9123 16.2236L20.1708 13.6902L23.7318 11.7911L26.4227 10.0513Z" fill="#AAB2BC"/>
<path d="M36.8283 32.6036C36.4722 32.4849 36.3925 30.5858 36.3925 30.5858L42.9615 22.1176L40.7063 18.3601L34.0203 27.3811L30.2989 28.0135L26.6601 23.3046L21.3577 18.3601L19.301 22.3161L25.987 30.0704L26.1854 32.7613L15.1466 38.6165L16.6489 43.4831L29.2716 35.3338L33.7421 35.8086L45.9677 42.4557L47.7483 38.6165C47.7483 38.6164 37.1844 32.7223 36.8283 32.6036Z" fill="#F6BB42"/>
<path d="M36.3924 10.0513L37.9763 3.87904L52.2977 8.15217L51.5076 10.0514L56.3334 13.3749L59.8165 17.3309V19.23C59.8165 19.23 58.5497 19.625 58.5497 19.8624C58.5497 20.0998 60.4489 29.3583 60.4489 29.3583V31.337L53.0895 26.5094C53.0895 26.5094 51.1904 22.4737 50.953 22.5535C50.7156 22.6333 45.5727 23.4233 45.5727 23.4233L40.9028 16.2236L42.6443 13.6902L39.0834 11.7911L36.3924 10.0513Z" fill="#AAB2BC"/>
<path d="M35.0923 31.7302C35.0923 33.7554 33.4509 35.3968 31.4248 35.3968C29.4014 35.3968 27.76 33.7554 27.76 31.7302C27.76 29.7049 29.4014 28.0636 31.4248 28.0636C33.4509 28.0635 35.0923 29.7049 35.0923 31.7302Z" fill="#ED5564"/>
<path d="M61.4578 27.0231C61.1387 24.3431 60.564 22.1787 59.7404 20.5614L60.8458 20.1942C61.4873 19.9809 61.8472 19.3021 61.6654 18.6512C60.9123 15.9656 58.8223 13.5101 55.456 11.3513C54.6752 10.8505 53.9185 10.4277 53.2489 10.0808L53.4158 9.99738C53.8442 9.78229 54.115 9.34452 54.115 8.86426C54.115 8.38399 53.8443 7.94622 53.414 7.73102C53.0375 7.5456 44.139 3.13526 37.7405 2.53997C37.1063 2.48252 36.5296 2.90165 36.3885 3.52116L34.8807 10.1923C34.7546 10.7524 35.0198 11.3273 35.528 11.5925L35.743 11.7056C34.3316 12.2675 32.7877 12.6645 31.2335 12.6645C29.7165 12.6645 28.2196 12.2825 26.8528 11.7372L27.1272 11.5925C27.6354 11.3273 27.9025 10.7523 27.7745 10.1923L26.2668 3.52116C26.1257 2.90165 25.549 2.48252 24.9146 2.53997C18.5179 3.13538 9.6157 7.5456 9.24108 7.73102C8.81078 7.9461 8.54003 8.38387 8.54003 8.86426C8.54003 9.34464 8.81078 9.78229 9.2393 9.99738L9.40619 10.0808C8.7366 10.4277 7.97999 10.8505 7.19918 11.3513C3.83328 13.5102 1.74319 15.9657 0.990149 18.6513C0.808417 19.3023 1.1682 19.981 1.8099 20.1943L2.91525 20.5616C2.09182 22.1789 1.51695 24.3431 1.19788 27.0232C0.897443 29.5492 0.941956 31.5966 0.943737 31.6839C0.954895 32.1419 1.21271 32.5573 1.61701 32.7725C1.80242 32.8708 2.00647 32.9209 2.21052 32.9209C2.44982 32.9209 2.6871 32.8523 2.89483 32.7168L10.3895 27.8911C10.5286 27.8021 10.6473 27.6871 10.7419 27.5535L12.5705 24.9386C12.9692 25.9177 13.0045 26.9897 12.68 28.1785C12.2591 29.7197 11.3688 30.851 11.3614 30.8584C11.0925 31.1922 11.0109 31.6411 11.1445 32.0491C16.1352 47.2757 18.6797 57.1886 18.7057 57.2869C18.8485 57.8471 19.353 58.2402 19.9317 58.2402H42.7204C43.2991 58.2402 43.8055 57.8471 43.9483 57.2869C43.9724 57.1886 46.5186 47.2757 51.5078 32.0491C51.6413 31.641 51.5597 31.1922 51.2908 30.8584C51.2834 30.8473 50.4209 29.7513 49.9924 28.2471C49.6531 27.0527 49.6864 25.9473 50.0888 24.9459L51.9138 27.5534C52.0084 27.687 52.1271 27.802 52.2663 27.891L59.7609 32.7167C59.9687 32.8521 60.2061 32.9207 60.4454 32.9207C60.6494 32.9207 60.8535 32.8707 61.0388 32.7724C61.4431 32.5573 61.7009 32.1418 61.712 31.6838C61.7137 31.5966 61.7582 29.5492 61.4578 27.0231ZM54.0893 13.4806C56.7805 15.2091 58.125 16.8819 58.789 18.2118L45.7693 22.5497L41.819 16.6241L43.4789 14.9698L50.3632 11.5258C51.0941 11.8318 52.5463 12.4902 54.0893 13.4806ZM42.7871 51.9103H19.8648C19.2899 49.8648 18.5239 47.207 17.5688 44.0339L30.2378 36.5985C30.5882 36.6746 30.9518 36.7172 31.3264 36.7172C31.6992 36.7172 32.0646 36.6746 32.4151 36.5985L45.0851 44.0339C44.1281 47.207 43.3621 49.8648 42.7871 51.9103ZM13.7482 31.8637C14.1451 31.2554 14.7329 30.2149 15.0946 28.9408C15.5268 27.4237 15.5378 25.9771 15.1428 24.638L17.0012 25.2574C17.1347 25.3019 17.2683 25.3241 17.4018 25.3241C17.8172 25.3241 18.216 25.1202 18.4551 24.7603L18.8057 24.2335L25.488 31.333L15.3746 36.9229C14.8647 35.3133 14.3232 33.6255 13.7482 31.8637ZM21.4264 20.3018L28.0882 27.765C27.619 28.1544 27.224 28.6292 26.9197 29.1616L20.2468 22.0713L21.4264 20.3018ZM42.4069 22.0712L35.7322 29.1615C35.4299 28.6273 35.033 28.1544 34.5656 27.7648L41.2274 20.3017L42.4069 22.0712ZM33.8589 31.6522C33.8589 33.0505 32.723 34.1856 31.3264 34.1856C29.9299 34.1856 28.7949 33.0506 28.7949 31.6522C28.7949 30.2576 29.9299 29.1225 31.3264 29.1225C32.723 29.1225 33.8589 30.2576 33.8589 31.6522ZM16.1481 39.3879L26.6471 33.5865C26.8901 34.1764 27.2443 34.7105 27.6801 35.163L16.812 41.5411C16.5988 40.8438 16.3762 40.1261 16.1481 39.3879ZM34.9717 35.163C35.4095 34.7105 35.7618 34.1764 36.0067 33.5865L46.5056 39.3879C46.2755 40.1261 46.0549 40.8438 45.8416 41.5412L34.9717 35.163ZM47.5573 28.9408C47.9207 30.2149 48.5088 31.2554 48.9056 31.8637C48.3288 33.6256 47.7872 35.3134 47.279 36.9231L37.164 31.3332L43.8481 24.2337L44.2005 24.7605C44.4398 25.1203 44.8385 25.3243 45.2537 25.3243C45.3873 25.3243 45.5227 25.302 45.6525 25.2576L47.5091 24.64C47.1139 25.9771 47.127 27.4255 47.5573 28.9408ZM38.605 5.20149C42.4719 5.80984 47.1678 7.6903 49.9312 8.91079L42.7426 12.507L37.5645 9.80105L38.605 5.20149ZM30.0597 15.1368V18.9926C30.0597 19.6936 30.6271 20.2592 31.3264 20.2592C32.0257 20.2592 32.5913 19.6935 32.5913 18.9926V15.1164C34.7714 14.8753 36.8394 14.0851 38.5808 13.1875L40.6135 14.252L39.2948 15.5651C38.8682 15.9917 38.7997 16.6594 39.1353 17.1639L39.777 18.1245L32.1573 26.6595C31.8866 26.615 31.6083 26.589 31.3264 26.589C31.0426 26.589 30.7663 26.615 30.4955 26.6595L22.8785 18.1263L23.5203 17.1637C23.8559 16.6593 23.7892 15.9916 23.3607 15.5649L22.0421 14.2519L24.0192 13.217C25.7644 14.1296 27.8489 14.9197 30.0597 15.1368ZM24.0507 5.20149L25.0911 9.80093L19.913 12.5068L12.7244 8.90889C15.486 7.6903 20.1801 5.80972 24.0507 5.20149ZM12.2942 11.5258L19.1766 14.9698L20.8364 16.6241L20.269 17.4754C20.2393 17.5144 20.2134 17.5533 20.1893 17.5941L17.615 21.4555C17.5927 21.4852 17.5724 21.5185 17.5537 21.5482L16.886 22.5498L3.86296 18.2099C5.66579 14.5543 10.6973 12.1972 12.2942 11.5258ZM8.80924 25.8973L3.53463 29.2932C3.68859 26.8265 4.16149 23.4455 5.35218 21.3757L10.7213 23.1655L8.80924 25.8973ZM20.907 55.7069C20.818 55.3712 20.7049 54.9465 20.5658 54.442H42.0861C41.9489 54.9465 41.8338 55.3712 41.7448 55.7069H20.907ZM53.8463 25.8973L51.9343 23.1655L57.3035 21.3757C58.494 23.4455 58.9671 26.8265 59.121 29.2932L53.8463 25.8973Z" fill="black"/>
<path d="M30.0597 31.6522C30.0597 32.3532 30.6271 32.9207 31.3264 32.9207C32.0256 32.9207 32.5913 32.3534 32.5913 31.6522C32.5913 30.9548 32.0255 30.3874 31.3264 30.3874C30.6272 30.3874 30.0597 30.9548 30.0597 31.6522Z" fill="black"/>
</g>
<defs>
<clipPath id="clip0">
<rect width="60.7748" height="60.7748" fill="white" transform="translate(0.940399)"/>
</clipPath>
</defs>
</svg>
